<?xml version="1.0" encoding="utf-8"?>
<svg viewBox="0 0 500 500" xmlns="http://www.w3.org/2000/svg" xmlns:xlink="http://www.w3.org/1999/xlink" xmlns:bx="https://boxy-svg.com">
  <defs>
    <linearGradient id="gradient-1-0" gradientUnits="userSpaceOnUse" x1="249.997" y1="-120.795" x2="249.997" y2="623.269" gradientTransform="matrix(0.859423, -0.511264, 0.33673, 0.566034, -64.173929, 198.954268)" xlink:href="#gradient-1"/>
    <linearGradient id="gradient-1" bx:pinned="true">
      <stop offset="0" style="stop-color: rgb(65, 209, 255);"/>
      <stop offset="1" style="stop-color: rgb(189, 52, 254);"/>
    </linearGradient>
    <linearGradient id="gradient-1-1" gradientUnits="userSpaceOnUse" x1="254.449" y1="82.133" x2="254.449" y2="393.521" gradientTransform="matrix(0.859219, -0.511605, 0.804973, 1.351914, -174.740141, 22.159128)" xlink:href="#gradient-1"/>
    <linearGradient id="paint1_linear" x1="194.651" y1="8.81818" x2="236.076" y2="292.989" gradientUnits="userSpaceOnUse" gradientTransform="matrix(1.171732, 0, 0, 1.221817, -69.669083, 35.309669)">
      <stop stop-color="#FFEA83"/>
      <stop offset="0.0833" stop-color="#FFDD35"/>
      <stop offset="1" stop-color="#FFA800"/>
    </linearGradient>
  </defs>
  <path d="M 87.255 451.748 L 87.255 28.74 L 235.424 28.74 Q 312.413 28.74 352.215 58.229 Q 392.018 87.717 392.018 144.661 Q 392.018 175.747 376.039 199.425 Q 360.06 223.103 331.588 234.143 Q 364.127 242.278 382.866 266.973 Q 401.605 291.667 401.605 327.402 Q 401.605 388.413 362.674 419.79 Q 323.744 451.167 251.693 451.748 Z M 174.413 267.554 L 174.413 381.731 L 249.078 381.731 Q 279.874 381.731 297.161 367.059 Q 314.447 352.388 314.447 326.531 Q 314.447 268.425 254.308 267.554 Z M 174.413 205.962 L 238.91 205.962 Q 304.86 204.8 304.86 153.376 Q 304.86 124.614 288.154 111.976 Q 271.449 99.338 235.424 99.338 L 174.413 99.338 Z" style="fill: url('#gradient-1-0');"/>
  <rect x="163.377" y="82.133" width="182.145" height="311.388" style="fill: url('#gradient-1-1'); stroke: rgba(0, 0, 0, 0);"/>
  <path d="M 273.608 37.234 L 114.06 69.833 C 111.438 70.37 109.494 72.687 109.338 75.467 L 99.524 248.31 C 99.292 252.381 102.878 255.54 106.688 254.623 L 151.109 243.935 C 155.265 242.935 159.02 246.752 158.167 251.11 L 144.968 318.496 C 144.08 323.033 148.164 326.911 152.411 325.565 L 179.848 316.872 C 184.103 315.527 188.187 319.416 187.289 323.956 L 166.315 429.805 C 165.004 436.424 173.449 440.034 176.971 434.359 L 179.323 430.568 L 309.332 160.024 C 311.509 155.493 307.756 150.328 302.983 151.289 L 257.261 160.49 C 252.964 161.354 249.309 157.182 250.521 152.798 L 280.363 44.923 C 281.577 40.531 277.909 36.354 273.608 37.234 Z" fill="url(#paint1_linear)" style=""/>
</svg>